# xmcd
#
# Track frame offsets: 
#        150
#        7085
#        19241
#        32156
#        41224
#        56535
#        73457
#        83732
#        97101
#        107760
#        124963
#        136759
#
# Disc length: 2016 seconds
#
# Revision: 0
# Processed by: cddbd v1.5.2PL0 Copyright (c) Steve Scherf et al.
# Submitted via: ExactAudioCopyFreeDBPlugin 1.0
#
DISCID=ac07de0c
DTITLE=Spare Snare - Garden Leave
DYEAR=2006
DGENRE=Indie Rock
TTITLE0=Field Trip
TTITLE1=Sort It For Afterwards
TTITLE2=Pick Up The Phone
TTITLE3=Riding
TTITLE4=Just Let Go
TTITLE5=Volume For Poetry
TTITLE6=Trees and Horses
TTITLE7=Come Back Home
TTITLE8=In The City
TTITLE9=Air Miles
TTITLE10=Xerox Darker
TTITLE11=Grow
EXTD=
EXTT0=
EXTT1=
EXTT2=
EXTT3=
EXTT4=
EXTT5=
EXTT6=
EXTT7=
EXTT8=
EXTT9=
EXTT10=
EXTT11=
PLAYORDER=
